<?xml version="1.0" standalone="no"?>
<!DOCTYPE svg PUBLIC "-//W3C//DTD SVG 20010904//EN"
 "http://www.w3.org/TR/2001/REC-SVG-20010904/DTD/svg10.dtd">
<svg version="1.0" xmlns="http://www.w3.org/2000/svg"
 width="1024.000000pt" height="1024.000000pt" viewBox="0 0 1024.000000 1024.000000"
 preserveAspectRatio="xMidYMid meet">
<metadata>
Created by potrace 1.14, written by Peter Selinger 2001-2017
</metadata>
<g transform="translate(0.000000,1024.000000) scale(0.100000,-0.100000)"
fill="#000000" stroke="none">
<path d="M1954 10207 c-17 -7 -345 -189 -728 -405 -524 -296 -702 -402 -718
-425 l-23 -32 -3 -3090 c-2 -2079 0 -3102 7 -3125 6 -20 23 -48 38 -62 52 -50
2911 -1681 4145 -2365 1175 -651 1225 -678 1273 -677 47 1 92 25 750 402 385
221 712 415 727 431 15 17 32 47 37 68 7 25 11 342 11 954 l0 916 818 468
c449 257 828 477 840 489 54 48 52 11 52 913 l0 838 -24 35 c-19 28 -90 72
-365 224 -187 103 -341 191 -341 195 0 4 278 166 618 361 339 194 628 363 641
374 52 46 51 23 51 911 0 889 2 852 -52 902 -12 12 -329 191 -703 399 -624
346 -685 377 -735 381 l-55 4 -1640 -942 c-902 -518 -1644 -942 -1650 -942 -5
0 -202 111 -436 245 -234 135 -440 248 -458 251 -47 10 -84 -7 -313 -136 -114
-64 -210 -117 -213 -117 -3 0 -5 382 -5 849 l0 848 -23 34 c-12 19 -43 45 -67
58 -25 13 -338 192 -697 397 -450 258 -663 375 -690 378 -21 3 -52 0 -69 -7z
m569 -627 c262 -150 476 -274 475 -275 -2 -1 -236 -134 -521 -294 -285 -161
-525 -290 -532 -287 -12 4 -974 554 -983 561 -2 1 232 135 520 298 465 263
525 294 543 283 11 -7 235 -135 498 -286z m665 -1337 l-3 -776 -325 -183
c-222 -125 -333 -193 -350 -215 l-25 -32 -6 -686 c-4 -377 -7 -958 -8 -1291
l-1 -606 -108 -61 c-59 -33 -133 -75 -164 -93 l-58 -32 0 2084 1 2083 216 120
c119 66 352 197 517 292 166 94 304 172 309 172 4 1 6 -348 5 -776z m-1860
467 l462 -265 2 -2240 c3 -2058 4 -2242 19 -2270 10 -17 25 -37 35 -46 11 -9
179 -108 374 -220 335 -193 357 -203 406 -203 41 0 59 5 89 28 71 54 65 -66
73 1646 4 852 10 1551 13 1554 3 4 233 -124 510 -283 l504 -289 7 -1269 c4
-697 8 -1448 10 -1669 l3 -401 28 -37 c25 -31 83 -64 378 -212 237 -118 360
-174 382 -174 49 0 118 39 139 80 17 33 18 123 18 2182 0 1182 2 2148 4 2148
2 0 226 -128 497 -284 l494 -285 3 -2876 2 -2876 -42 25 c-24 13 -500 277
-1058 586 -558 309 -1660 931 -2447 1383 l-1433 821 0 2873 0 2873 33 -17 c19
-10 241 -137 495 -283z m7446 -40 c273 -151 496 -277 496 -281 0 -9 -3323
-1914 -3333 -1911 -6 2 -230 130 -500 285 -475 273 -489 282 -466 297 77 51
3286 1889 3296 1887 6 -1 234 -126 507 -277z m666 -1167 l-1 -608 -1101 -630
c-606 -346 -1115 -641 -1131 -655 -58 -47 -57 -41 -57 -631 0 -481 2 -545 16
-576 35 -73 124 -110 195 -80 20 8 357 199 750 424 393 225 724 415 737 422
l22 12 0 -609 0 -609 -817 -468 c-450 -257 -831 -480 -847 -494 -58 -53 -56
-9 -56 -1018 l0 -928 -519 -297 c-285 -164 -521 -298 -525 -298 -3 0 -6 1291
-6 2869 l0 2868 1663 956 c914 525 1665 956 1670 956 4 1 7 -272 7 -606z
m-5133 -110 c161 -93 293 -170 293 -173 -1 -3 -20 -17 -45 -32 -78 -47 -79
-53 -85 -301 l-5 -218 -244 -138 -244 -138 -491 282 c-270 154 -499 286 -509
291 -14 8 79 65 500 302 285 161 522 292 528 292 5 0 142 -75 302 -167z m161
-2589 l-3 -1496 -155 -88 -155 -88 -7 236 c-3 130 -8 802 -10 1494 l-4 1256
161 91 c88 50 163 91 168 91 4 0 6 -673 5 -1496z m3947 807 l287 -159 -68 -40
c-228 -132 -1156 -662 -1160 -662 -2 0 -4 147 -4 328 l0 327 318 182 c174 100
322 182 328 183 6 0 141 -72 299 -159z m-5945 -1621 l0 -80 -75 37 c-41 21
-75 40 -75 43 0 6 131 79 143 80 4 0 7 -36 7 -80z m2000 -1140 c0 -38 -3 -70
-7 -70 -5 1 -36 15 -71 33 l-62 32 62 37 c35 20 66 37 71 38 4 0 7 -31 7 -70z"/>
</g>
</svg>
